<?xml version="1.0" encoding="UTF-8" standalone="no"?>
<svg width="800" height="600" viewBox="0 0 800 600" xmlns="http://www.w3.org/2000/svg">
  <!-- Background -->
  <rect width="100%" height="100%" fill="#030E33"/>
  
  <!-- Radial lines -->
  <g stroke="#0B4C8C" stroke-width="1" opacity="0.6">
    <!-- Create radial lines emanating from center -->
    <line x1="400" y1="300" x2="0" y2="0"/>
    <line x1="400" y1="300" x2="800" y2="0"/>
    <line x1="400" y1="300" x2="0" y2="600"/>
    <line x1="400" y1="300" x2="800" y2="600"/>
    <line x1="400" y1="300" x2="0" y2="300"/>
    <line x1="400" y1="300" x2="800" y2="300"/>
    <line x1="400" y1="300" x2="400" y2="0"/>
    <line x1="400" y1="300" x2="400" y2="600"/>
    <line x1="400" y1="300" x2="200" y2="150"/>
    <line x1="400" y1="300" x2="600" y2="150"/>
    <line x1="400" y1="300" x2="200" y2="450"/>
    <line x1="400" y1="300" x2="600" y2="450"/>
  </g>
  
  <!-- Fingerprint Section -->
  <g transform="translate(100, 100)">
    <rect x="0" y="0" width="150" height="150" fill="none" stroke="#1E90FF" stroke-width="2" rx="5"/>
    <circle cx="75" cy="75" r="50" fill="none" stroke="#1E90FF" stroke-width="2"/>
    <path d="M55,75 Q75,100 95,75 Q75,50 55,75" fill="none" stroke="#1E90FF" stroke-width="2"/>
    <path d="M45,75 Q75,120 105,75 Q75,30 45,75" fill="none" stroke="#1E90FF" stroke-width="2"/>
    <path d="M35,75 Q75,140 115,75 Q75,10 35,75" fill="none" stroke="#1E90FF" stroke-width="2"/>
    <text x="75" y="180" fill="#1E90FF" font-family="Arial" font-size="14" text-anchor="middle">Biometric Data</text>
  </g>
  
  <!-- Lock Section -->
  <g transform="translate(100, 300)">
    <rect x="0" y="0" width="150" height="150" fill="none" stroke="#1E90FF" stroke-width="2" rx="5"/>
    <rect x="45" y="60" width="60" height="70" fill="none" stroke="#1E90FF" stroke-width="2" rx="5"/>
    <rect x="60" y="30" width="30" height="30" fill="none" stroke="#1E90FF" stroke-width="2" rx="15"/>
    <circle cx="75" cy="95" r="10" fill="#1E90FF"/>
    <text x="75" y="180" fill="#1E90FF" font-family="Arial" font-size="14" text-anchor="middle">Confidential Data</text>
  </g>
  
  <!-- Person Silhouette with Binary -->
  <g transform="translate(300, 70)">
    <rect x="0" y="0" width="200" height="230" fill="none" stroke="#1E90FF" stroke-width="2" rx="5"/>
    <!-- Head -->
    <circle cx="100" cy="50" r="35" fill="#05C3FF" opacity="0.7"/>
    <!-- Binary inside silhouette -->
    <g fill="#05C3FF" font-family="monospace" font-size="8">
      <text x="80" y="40">101001</text>
      <text x="85" y="50">01001</text>
      <text x="90" y="60">1001</text>
      <text x="75" y="45">01010</text>
      <text x="95" y="55">10110</text>
      <text x="82" y="65">110101</text>
    </g>
    <!-- Body -->
    <path d="M70,85 L70,180 M130,85 L130,180 M70,115 L50,150 M130,115 L150,150 M70,180 L60,210 M130,180 L140,210" 
          fill="none" stroke="#05C3FF" stroke-width="20" stroke-linecap="round" opacity="0.7"/>
    <text x="100" y="260" fill="#1E90FF" font-family="Arial" font-size="14" text-anchor="middle">[Identify Person]</text>
  </g>
  
  <!-- Folder/Database Section -->
  <g transform="translate(100, 500)">
    <rect x="0" y="0" width="150" height="80" fill="none" stroke="#1E90FF" stroke-width="2" rx="5"/>
    <rect x="20" y="15" width="30" height="20" fill="#1E90FF" opacity="0.7"/>
    <rect x="60" y="15" width="30" height="20" fill="#1E90FF" opacity="0.7"/>
    <rect x="100" y="15" width="30" height="20" fill="#1E90FF" opacity="0.7"/>
    <rect x="20" y="45" width="30" height="20" fill="#1E90FF" opacity="0.7"/>
    <rect x="60" y="45" width="30" height="20" fill="#1E90FF" opacity="0.7"/>
    <rect x="100" y="45" width="30" height="20" fill="#1E90FF" opacity="0.7"/>
  </g>
  
  <!-- Personal Data Section -->
  <g transform="translate(520, 70)">
    <rect x="0" y="0" width="230" height="40" fill="none" stroke="#1E90FF" stroke-width="2" rx="5"/>
    <text x="115" y="25" fill="#1E90FF" font-family="Arial" font-size="18" text-anchor="middle">Personal Data</text>
  </g>
  
  <!-- Data Fields -->
  <g transform="translate(520, 130)">
    <rect x="0" y="0" width="230" height="30" fill="none" stroke="#1E90FF" stroke-width="2" rx="5"/>
    <text x="25" y="20" fill="#1E90FF" font-family="Arial" font-size="14">Name</text>
    <line x1="115" y1="0" x2="115" y2="30" stroke="#1E90FF" stroke-width="1"/>
    <line x1="115" y1="15" x2="200" y2="15" stroke="#1E90FF" stroke-width="1" stroke-dasharray="2,2"/>
  </g>
  
  <g transform="translate(520, 170)">
    <rect x="0" y="0" width="230" height="30" fill="none" stroke="#1E90FF" stroke-width="2" rx="5"/>
    <text x="25" y="20" fill="#1E90FF" font-family="Arial" font-size="14">Home Address</text>
    <line x1="115" y1="0" x2="115" y2="30" stroke="#1E90FF" stroke-width="1"/>
    <line x1="115" y1="15" x2="200" y2="15" stroke="#1E90FF" stroke-width="1" stroke-dasharray="2,2"/>
  </g>
  
  <g transform="translate(520, 210)">
    <rect x="0" y="0" width="230" height="30" fill="none" stroke="#1E90FF" stroke-width="2" rx="5"/>
    <text x="25" y="20" fill="#1E90FF" font-family="Arial" font-size="14">Business Address</text>
    <line x1="115" y1="0" x2="115" y2="30" stroke="#1E90FF" stroke-width="1"/>
    <line x1="115" y1="15" x2="200" y2="15" stroke="#1E90FF" stroke-width="1" stroke-dasharray="2,2"/>
  </g>
  
  <g transform="translate(520, 250)">
    <rect x="0" y="0" width="230" height="30" fill="none" stroke="#1E90FF" stroke-width="2" rx="5"/>
    <text x="25" y="20" fill="#1E90FF" font-family="Arial" font-size="14">Identity Card No</text>
    <line x1="115" y1="0" x2="115" y2="30" stroke="#1E90FF" stroke-width="1"/>
    <line x1="115" y1="15" x2="200" y2="15" stroke="#1E90FF" stroke-width="1" stroke-dasharray="2,2"/>
  </g>
  
  <g transform="translate(520, 290)">
    <rect x="0" y="0" width="230" height="30" fill="none" stroke="#1E90FF" stroke-width="2" rx="5"/>
    <text x="25" y="20" fill="#1E90FF" font-family="Arial" font-size="14">Passport No</text>
    <line x1="115" y1="0" x2="115" y2="30" stroke="#1E90FF" stroke-width="1"/>
    <line x1="115" y1="15" x2="200" y2="15" stroke="#1E90FF" stroke-width="1" stroke-dasharray="2,2"/>
  </g>
  
  <g transform="translate(520, 330)">
    <rect x="0" y="0" width="230" height="30" fill="none" stroke="#1E90FF" stroke-width="2" rx="5"/>
    <text x="25" y="20" fill="#1E90FF" font-family="Arial" font-size="14">Driving License</text>
    <line x1="115" y1="0" x2="115" y2="30" stroke="#1E90FF" stroke-width="1"/>
    <line x1="115" y1="15" x2="200" y2="15" stroke="#1E90FF" stroke-width="1" stroke-dasharray="2,2"/>
  </g>
  
  <g transform="translate(520, 370)">
    <rect x="0" y="0" width="230" height="30" fill="none" stroke="#1E90FF" stroke-width="2" rx="5"/>
    <text x="25" y="20" fill="#1E90FF" font-family="Arial" font-size="14">Income Tax No</text>
    <line x1="115" y1="0" x2="115" y2="30" stroke="#1E90FF" stroke-width="1"/>
    <line x1="115" y1="15" x2="200" y2="15" stroke="#1E90FF" stroke-width="1" stroke-dasharray="2,2"/>
  </g>
  
  <g transform="translate(520, 410)">
    <rect x="0" y="0" width="230" height="30" fill="none" stroke="#1E90FF" stroke-width="2" rx="5"/>
    <text x="25" y="20" fill="#1E90FF" font-family="Arial" font-size="14">Car Registration</text>
    <line x1="115" y1="0" x2="115" y2="30" stroke="#1E90FF" stroke-width="1"/>
    <line x1="115" y1="15" x2="200" y2="15" stroke="#1E90FF" stroke-width="1" stroke-dasharray="2,2"/>
  </g>
  
  <g transform="translate(520, 450)">
    <rect x="0" y="0" width="230" height="30" fill="none" stroke="#1E90FF" stroke-width="2" rx="5"/>
    <text x="25" y="20" fill="#1E90FF" font-family="Arial" font-size="14">Other</text>
    <line x1="115" y1="0" x2="115" y2="30" stroke="#1E90FF" stroke-width="1"/>
    <line x1="115" y1="15" x2="200" y2="15" stroke="#1E90FF" stroke-width="1" stroke-dasharray="2,2"/>
  </g>
  
  <!-- Connection lines -->
  <g stroke="#1E90FF" stroke-width="1.5" fill="none">
    <path d="M250,175 L300,175" />
    <path d="M500,175 L520,175" />
    <path d="M175,250 L250,330 L300,300" />
    <path d="M175,400 L200,450 L300,350" />
  </g>
  
  <!-- Binary data background -->
  <g fill="#1E90FF" opacity="0.15" font-family="monospace" font-size="10">
    <text x="50" y="580">01001010 10101010 10100101 01010101 01010101 01010101 01010101 01010101 01010101 01010101 01010101 01010101</text>
    <text x="50" y="590">10101010 01010101 01010101 01010101 01010101 01010101 01010101 01010101 01010101 01010101 01010101 01010101</text>
  </g>
</svg>