<?xml version="1.0" encoding="UTF-8" standalone="no"?>
<svg width="800" height="600" viewBox="0 0 800 600" xmlns="http://www.w3.org/2000/svg">
  <!-- Dynamic Background -->
  <defs>
    <linearGradient id="bg-gradient" x1="0%" y1="0%" x2="100%" y2="100%">
      <stop offset="0%" stop-color="#f0f4f8" />
      <stop offset="100%" stop-color="#d9e2ec" />
    </linearGradient>
    
    <linearGradient id="data-flow" x1="0%" y1="0%" x2="100%" y2="0%">
      <stop offset="0%" stop-color="#3a86ff">
        <animate attributeName="stop-color" 
                 values="#3a86ff; #4361ee; #3a86ff" 
                 dur="5s" 
                 repeatCount="indefinite"/>
      </stop>
      <stop offset="100%" stop-color="#4361ee">
        <animate attributeName="stop-color" 
                 values="#4361ee; #3a86ff; #4361ee" 
                 dur="5s" 
                 repeatCount="indefinite"/>
      </stop>
    </linearGradient>

    <filter id="glow" x="-20%" y="-20%" width="140%" height="140%">
      <feGaussianBlur stdDeviation="5" result="blur"/>
      <feComposite in="SourceGraphic" in2="blur" operator="over"/>
    </filter>
  </defs>
  
  <!-- Main Background -->
  <rect width="100%" height="100%" fill="url(#bg-gradient)"/>
  
  <!-- Network Grid -->
  <g stroke="#0a2c5a" stroke-width="0.5" opacity="0.2">
    <g id="grid">
      <!-- Horizontal Lines -->
      <line x1="0" y1="50" x2="800" y2="50"/>
      <line x1="0" y1="100" x2="800" y2="100"/>
      <line x1="0" y1="150" x2="800" y2="150"/>
      <line x1="0" y1="200" x2="800" y2="200"/>
      <line x1="0" y1="250" x2="800" y2="250"/>
      <line x1="0" y1="300" x2="800" y2="300"/>
      <line x1="0" y1="350" x2="800" y2="350"/>
      <line x1="0" y1="400" x2="800" y2="400"/>
      <line x1="0" y1="450" x2="800" y2="450"/>
      <line x1="0" y1="500" x2="800" y2="500"/>
      <line x1="0" y1="550" x2="800" y2="550"/>
      
      <!-- Vertical Lines -->
      <line x1="50" y1="0" x2="50" y2="600"/>
      <line x1="100" y1="0" x2="100" y2="600"/>
      <line x1="150" y1="0" x2="150" y2="600"/>
      <line x1="200" y1="0" x2="200" y2="600"/>
      <line x1="250" y1="0" x2="250" y2="600"/>
      <line x1="300" y1="0" x2="300" y2="600"/>
      <line x1="350" y1="0" x2="350" y2="600"/>
      <line x1="400" y1="0" x2="400" y2="600"/>
      <line x1="450" y1="0" x2="450" y2="600"/>
      <line x1="500" y1="0" x2="500" y2="600"/>
      <line x1="550" y1="0" x2="550" y2="600"/>
      <line x1="600" y1="0" x2="600" y2="600"/>
      <line x1="650" y1="0" x2="650" y2="600"/>
      <line x1="700" y1="0" x2="700" y2="600"/>
      <line x1="750" y1="0" x2="750" y2="600"/>
    </g>
  </g>
  
  <!-- Central Hub -->
  <g transform="translate(400, 300)">
    <circle cx="0" cy="0" r="50" fill="#0a2c5a" opacity="0.9">
      <animate attributeName="r" 
               values="50; 55; 50" 
               dur="3s" 
               repeatCount="indefinite"/>
    </circle>
    <circle cx="0" cy="0" r="40" fill="#1c3f72" opacity="0.9"/>
    <text x="0" y="5" fill="#e0f0ff" font-family="Arial" font-size="14" text-anchor="middle" font-weight="bold">PRIVACY</text>
    <text x="0" y="-10" fill="#e0f0ff" font-family="Arial" font-size="14" text-anchor="middle" font-weight="bold">WEAVE</text>
  </g>
  
  <!-- Data Nodes -->
  <g id="nodes">
    <!-- Node 1: Personal Data -->
    <g transform="translate(150, 150)">
      <circle cx="0" cy="0" r="30" fill="#1e5285" opacity="0.85"/>
      <text x="0" y="5" fill="#0a2c5a" font-family="Arial" font-size="12" text-anchor="middle" font-weight="bold">Personal</text>
      <text x="0" y="-8" fill="#0a2c5a" font-family="Arial" font-size="12" text-anchor="middle" font-weight="bold">Data</text>
    </g>
    
    <!-- Node 2: Financial Data -->
    <g transform="translate(650, 150)">
      <circle cx="0" cy="0" r="30" fill="#1e5285" opacity="0.85"/>
      <text x="0" y="5" fill="#0a2c5a" font-family="Arial" font-size="12" text-anchor="middle" font-weight="bold">Financial</text>
      <text x="0" y="-8" fill="#0a2c5a" font-family="Arial" font-size="12" text-anchor="middle" font-weight="bold">Data</text>
    </g>
    
    <!-- Node 3: Medical Records -->
    <g transform="translate(650, 450)">
      <circle cx="0" cy="0" r="30" fill="#1e5285" opacity="0.85"/>
      <text x="0" y="5" fill="#0a2c5a" font-family="Arial" font-size="12" text-anchor="middle" font-weight="bold">Medical</text>
      <text x="0" y="-8" fill="#0a2c5a" font-family="Arial" font-size="12" text-anchor="middle" font-weight="bold">Records</text>
    </g>
    
    <!-- Node 4: Identity Data -->
    <g transform="translate(150, 450)">
      <circle cx="0" cy="0" r="30" fill="#1e5285" opacity="0.85"/>
      <text x="0" y="5" fill="#0a2c5a" font-family="Arial" font-size="12" text-anchor="middle" font-weight="bold">Identity</text>
      <text x="0" y="-8" fill="#0a2c5a" font-family="Arial" font-size="12" text-anchor="middle" font-weight="bold">Data</text>
    </g>
  </g>
  
  <!-- Connection lines with animations -->
  <g stroke="url(#data-flow)" stroke-width="3" opacity="0.85" filter="url(#glow)">
    <!-- Central Hub to Node 1 -->
    <path d="M400,300 L150,150">
      <animate attributeName="stroke-dasharray" 
               values="10,10; 5,10; 10,10" 
               dur="5s" 
               repeatCount="indefinite"/>
    </path>
    
    <!-- Central Hub to Node 2 -->
    <path d="M400,300 L650,150">
      <animate attributeName="stroke-dasharray" 
               values="5,10; 10,10; 5,10" 
               dur="4s" 
               repeatCount="indefinite"/>
    </path>
    
    <!-- Central Hub to Node 3 -->
    <path d="M400,300 L650,450">
      <animate attributeName="stroke-dasharray" 
               values="10,10; 5,10; 10,10" 
               dur="5.5s" 
               repeatCount="indefinite"/>
    </path>
    
    <!-- Central Hub to Node 4 -->
    <path d="M400,300 L150,450">
      <animate attributeName="stroke-dasharray" 
               values="5,10; 10,10; 5,10" 
               dur="6s" 
               repeatCount="indefinite"/>
    </path>
  </g>
  
  <!-- Data Packets Moving on Lines -->
  <g>
    <!-- Packet 1 -->
    <circle cx="0" cy="0" r="5" fill="#0a2c5a">
      <animateMotion
        path="M150,150 L400,300"
        dur="3s"
        repeatCount="indefinite"/>
    </circle>
    
    <!-- Packet 2 -->
    <circle cx="0" cy="0" r="5" fill="#0a2c5a">
      <animateMotion
        path="M650,150 L400,300"
        dur="4s"
        repeatCount="indefinite"/>
    </circle>
    
    <!-- Packet 3 -->
    <circle cx="0" cy="0" r="5" fill="#0a2c5a">
      <animateMotion
        path="M650,450 L400,300"
        dur="3.5s"
        repeatCount="indefinite"/>
    </circle>
    
    <!-- Packet 4 -->
    <circle cx="0" cy="0" r="5" fill="#0a2c5a">
      <animateMotion
        path="M150,450 L400,300"
        dur="4.5s"
        repeatCount="indefinite"/>
    </circle>
  </g>
  
  <!-- Shield Security Icons -->
  <g>
    <!-- Shield 1 -->
    <g transform="translate(275, 225) scale(0.4)">
      <path d="M50,0 L100,30 L100,70 C100,85 75,100 50,110 C25,100 0,85 0,70 L0,30 L50,0" 
            fill="#0a2c5a" stroke="#007bff" stroke-width="3"/>
      <text x="50" y="65" fill="#e0f0ff" font-family="Arial" font-size="24" text-anchor="middle" font-weight="bold">AI</text>
    </g>
    
    <!-- Shield 2 -->
    <g transform="translate(525, 225) scale(0.4)">
      <path d="M50,0 L100,30 L100,70 C100,85 75,100 50,110 C25,100 0,85 0,70 L0,30 L50,0" 
            fill="#0a2c5a" stroke="#007bff" stroke-width="3"/>
      <text x="50" y="65" fill="#e0f0ff" font-family="Arial" font-size="24" text-anchor="middle" font-weight="bold">ML</text>
    </g>
    
    <!-- Shield 3 -->
    <g transform="translate(525, 375) scale(0.4)">
      <path d="M50,0 L100,30 L100,70 C100,85 75,100 50,110 C25,100 0,85 0,70 L0,30 L50,0" 
            fill="#0a2c5a" stroke="#007bff" stroke-width="3"/>
      <text x="50" y="65" fill="#e0f0ff" font-family="Arial" font-size="15" text-anchor="middle" font-weight="bold">ZERO</text>
      <text x="50" y="85" fill="#e0f0ff" font-family="Arial" font-size="15" text-anchor="middle" font-weight="bold">TRUST</text>
    </g>
    
    <!-- Shield 4 -->
    <g transform="translate(275, 375) scale(0.4)">
      <path d="M50,0 L100,30 L100,70 C100,85 75,100 50,110 C25,100 0,85 0,70 L0,30 L50,0" 
            fill="#0a2c5a" stroke="#007bff" stroke-width="3"/>
      <text x="50" y="65" fill="#e0f0ff" font-family="Arial" font-size="16" text-anchor="middle" font-weight="bold">GDPR</text>
    </g>
  </g>
  
  <!-- Data Visualization Element -->
  <g transform="translate(400, 140)">
    <rect x="-100" y="-25" width="200" height="50" rx="10" fill="#0a2c5a" opacity="0.85"/>
    <text x="0" y="0" fill="#e0f0ff" font-family="Arial" font-size="14" text-anchor="middle" font-weight="bold">Advanced Privacy Solutions</text>
    <text x="0" y="20" fill="#e0f0ff" font-family="Arial" font-size="12" text-anchor="middle">Powered by AI & ML</text>
  </g>
  
  <g transform="translate(400, 480)">
    <rect x="-115" y="-25" width="230" height="50" rx="10" fill="#0a2c5a" opacity="0.85"/>
    <text x="0" y="0" fill="#e0f0ff" font-family="Arial" font-size="14" text-anchor="middle" font-weight="bold">Enterprise-Grade Protection</text>
    <text x="0" y="20" fill="#e0f0ff" font-family="Arial" font-size="12" text-anchor="middle">Zero-Trust Architecture</text>
  </g>
  
  <!-- Dynamic Binary Data in Background -->
  <g fill="#0a2c5a" opacity="0.15" font-family="monospace" font-size="10">
    <text x="50" y="50">01001010 10101010 10100101 01010101 01010101 01010101 01010101</text>
    <text x="50" y="580">10101010 01010101 01010101 01010101 01010101 01010101 01010101</text>
    <text x="600" y="50">10101010 01010101 01010101 01010101 01010101 01010101 01010101</text>
    <text x="600" y="580">01001010 10101010 10100101 01010101 01010101 01010101 01010101</text>
  </g>
  
  <!-- Description Text in Primary Dark Blue Color -->
  <g>
    <text x="400" y="535" fill="#0a2c5a" font-family="Arial" font-size="16" text-anchor="middle" font-weight="bold">PrivacyWeave: Next-Generation Privacy Infrastructure</text>
    <text x="400" y="560" fill="#0a2c5a" font-family="Arial" font-size="14" text-anchor="middle">Secure • Compliant • Intelligent</text>
  </g>
</svg>